PathFileType	4	(X/Y/Z)	/tmp/tmp8ooq684z//results/MarkerData/rotated_Sprint_08550001.trc
DataRate	CameraRate	NumFrames	NumMarkers	Units	OrigDataRate	OrigDataStartFrame	OrigNumFrames
200	200	9	46	m	200	417	477
Frame#	Time	C7			L.ASIS			L.PSIS			L_5meta			L_Shoulder			L_ankle			L_calc			L_elbow_lat			L_elbow_med			L_forearm			L_humerus			L_knee			L_sh2			L_sh3			L_shank_antsup			L_thigh1			L_thigh2			L_thigh3			L_thigh4			L_toe			L_wrist_radius			L_wrist_ulna			R_Shoulder			R_elbow_lat			R_elbow_med			R_forearm			R_humerus			R_wrist_radius			R_wrist_ulna			Sternum			r.ASIS			r.PSIS			r_5meta			r_ankle			r_calc			r_knee			r_sh2			r_sh3			r_sh4			r_shank_antsup			r_thigh1			r_thigh2			r_thigh3			r_thigh4			r_thigh5			r_toe		
		X1	Y1	Z1	X2	Y2	Z2	X3	Y3	Z3	X4	Y4	Z4	X5	Y5	Z5	X6	Y6	Z6	X7	Y7	Z7	X8	Y8	Z8	X9	Y9	Z9	X10	Y10	Z10	X11	Y11	Z11	X12	Y12	Z12	X13	Y13	Z13	X14	Y14	Z14	X15	Y15	Z15	X16	Y16	Z16	X17	Y17	Z17	X18	Y18	Z18	X19	Y19	Z19	X20	Y20	Z20	X21	Y21	Z21	X22	Y22	Z22	X23	Y23	Z23	X24	Y24	Z24	X25	Y25	Z25	X26	Y26	Z26	X27	Y27	Z27	X28	Y28	Z28	X29	Y29	Z29	X30	Y30	Z30	X31	Y31	Z31	X32	Y32	Z32	X33	Y33	Z33	X34	Y34	Z34	X35	Y35	Z35	X36	Y36	Z36	X37	Y37	Z37	X38	Y38	Z38	X39	Y39	Z39	X40	Y40	Z40	X41	Y41	Z41	X42	Y42	Z42	X43	Y43	Z43	X44	Y44	Z44	X45	Y45	Z45	X46	Y46	Z46

418	2.09	0.864336	1.59236	-0.312585	0.877375	1.04554	-0.428966	0.688711	1.10112	-0.332984	1.38817	0.171822	-0.439033	0.872118	1.5536	-0.500728	1.22318	0.207263	-0.412645	1.184	0.178578	-0.348856	0.555131	1.47717	-0.590728	0.523748	1.44634	-0.507843	0.599113	1.31445	-0.605848	0.663973	1.45667	-0.580873	1.05499	0.602188	-0.454459	1.04394	0.47357	-0.459885	1.09241	0.371768	-0.441348	1.12162	0.510022	-0.459255	1.00278	0.828644	-0.458069	1.06363	0.705194	-0.437738	0.902043	0.780398	-0.49923	0.967006	0.66347	-0.457708	1.42121	0.219211	-0.385888	0.674535	1.21902	-0.566743	0.606118	1.20095	-0.588954	0.965238	1.54007	-0.144035	0.821239	1.27271	0.0465902	0.76838	1.24244	-0.0261374	0.966935	1.20594	-0.0445066	0.917397	1.33479	-0.0321873	1.04874	1.15752	-0.101113	1.03247	1.11712	-0.0791102	0.974697	1.45166	-0.355287	0.904974	1.04287	-0.164183	0.696829	1.11031	-0.233003	0.118481	0.504747	-0.154746	0.252262	0.570461	-0.163805	0.266859	0.645824	-0.227323	0.687333	0.569219	-0.130545	0.455576	0.529489	-0.138316	0.572556	0.597078	-0.105195	0.461852	0.611177	-0.132121	0.574027	0.525002	-0.123403	0.846093	0.747303	-0.114395	0.803093	0.640184	-0.128756	0.752283	0.625417	-0.110781	0.73979	0.779864	-0.0882288	0.703031	0.670329	-0.113724	0.131221	0.450038	-0.210654
419	2.095	0.864517	1.59277	-0.315157	0.876638	1.04574	-0.429223	0.688123	1.10022	-0.331075	1.37447	0.156484	-0.44116	0.874363	1.54922	-0.502631	1.21139	0.198672	-0.409893	1.17478	0.175235	-0.343315	0.559248	1.46333	-0.598141	0.526845	1.43347	-0.51528	0.607262	1.30107	-0.609602	0.667966	1.44529	-0.585799	1.0425	0.595529	-0.455407	1.0316	0.462108	-0.457848	1.07919	0.362726	-0.436184	1.10712	0.499052	-0.462339	0.994059	0.819869	-0.460248	1.05343	0.69566	-0.442131	0.892406	0.774906	-0.501617	0.955268	0.657842	-0.457737	1.41047	0.207507	-0.393403	0.684321	1.2083	-0.567021	0.616711	1.18819	-0.590719	0.962783	1.53964	-0.143305	0.810014	1.27612	0.0453052	0.759498	1.24743	-0.028165	0.953314	1.19397	-0.0382193	0.908406	1.33587	-0.0307821	1.03271	1.13638	-0.0902296	1.0125	1.09839	-0.0671861	0.975018	1.45028	-0.354376	0.905741	1.04346	-0.164897	0.697353	1.10902	-0.2318	0.128503	0.531428	-0.157105	0.265091	0.590807	-0.165568	0.283618	0.665671	-0.228203	0.698458	0.565336	-0.130694	0.465646	0.537443	-0.140607	0.585489	0.597859	-0.10515	0.476023	0.618529	-0.13204	0.583439	0.526397	-0.124905	0.853547	0.746238	-0.116678	0.812395	0.638225	-0.13044	0.762077	0.622596	-0.111926	0.74719	0.776735	-0.0885826	0.712019	0.666631	-0.114029	0.138946	0.476493	-0.213309
420	2.1	0.864642	1.59211	-0.316964	0.875746	1.04568	-0.429281	0.687335	1.09915	-0.32912	1.35769	0.140308	-0.442682	0.876342	1.54445	-0.504832	1.19681	0.189908	-0.407204	1.16213	0.171389	-0.339587	0.563728	1.44818	-0.606116	0.530292	1.41936	-0.523287	0.616198	1.28688	-0.61346	0.672302	1.43301	-0.591194	1.02893	0.588414	-0.455849	1.01547	0.454284	-0.455476	1.06492	0.354384	-0.429989	1.09159	0.488573	-0.464116	0.984736	0.813784	-0.463906	1.0434	0.689345	-0.445278	0.882433	0.769792	-0.502294	0.944342	0.653225	-0.45733	1.39634	0.193347	-0.399304	0.694927	1.19709	-0.566936	0.628293	1.17469	-0.592304	0.960067	1.53908	-0.142455	0.798682	1.2792	0.0438856	0.749894	1.25177	-0.0304719	0.938299	1.1821	-0.0313897	0.89906	1.33686	-0.0298037	1.01456	1.11585	-0.0783042	0.990572	1.08066	-0.0546718	0.975368	1.44881	-0.353381	0.906529	1.04373	-0.165629	0.697881	1.10753	-0.23031	0.141206	0.556225	-0.159148	0.280009	0.609945	-0.167331	0.301851	0.684332	-0.229309	0.710093	0.561338	-0.131391	0.476899	0.544634	-0.14287	0.598978	0.598158	-0.105032	0.491134	0.624992	-0.131963	0.593819	0.527607	-0.126821	0.861241	0.745024	-0.11904	0.82218	0.636153	-0.132426	0.772525	0.619619	-0.113593	0.754886	0.773349	-0.0888777	0.721467	0.662582	-0.114458	0.149296	0.501192	-0.215826
421	2.105	0.864605	1.59021	-0.318213	0.874364	1.04528	-0.428998	0.686199	1.09769	-0.327377	1.33822	0.125089	-0.443778	0.878025	1.53938	-0.507384	1.1793	0.181053	-0.406008	1.14605	0.165599	-0.337377	0.568781	1.43147	-0.614552	0.534244	1.4042	-0.531851	0.626041	1.27191	-0.617312	0.677157	1.41988	-0.597114	1.01458	0.580759	-0.455995	0.993776	0.44986	-0.44899	1.04939	0.346357	-0.423902	1.07514	0.479122	-0.46455	0.975744	0.809808	-0.468602	1.03367	0.685154	-0.447586	0.872401	0.765156	-0.501414	0.933815	0.648511	-0.456424	1.37907	0.178249	-0.402698	0.706477	1.18561	-0.566656	0.640893	1.16071	-0.593696	0.956942	1.53815	-0.141622	0.78732	1.28191	0.0423179	0.739822	1.2555	-0.0329322	0.921994	1.17063	-0.0240104	0.889497	1.33778	-0.0291141	0.99437	1.09627	-0.0654643	0.966783	1.06416	-0.0414556	0.975816	1.44728	-0.352308	0.9073	1.04357	-0.166475	0.698213	1.10586	-0.228262	0.156268	0.578893	-0.160764	0.296733	0.627651	-0.169128	0.321195	0.701623	-0.230791	0.722293	0.557398	-0.132379	0.489334	0.551067	-0.145267	0.61328	0.598177	-0.105474	0.50712	0.630765	-0.13194	0.60517	0.5284	-0.129126	0.869281	0.743543	-0.120814	0.832512	0.634172	-0.134541	0.783542	0.616455	-0.114981	0.762723	0.769708	-0.0889893	0.731395	0.658287	-0.114962	0.162496	0.523892	-0.21823
422	2.11	0.864076	1.5876	-0.319676	0.872649	1.04459	-0.428646	0.685063	1.09611	-0.325815	1.31654	0.110784	-0.444369	0.879582	1.53403	-0.510117	1.15971	0.171466	-0.405172	1.12655	0.157432	-0.336218	0.574821	1.41369	-0.62317	0.538803	1.388	-0.540766	0.636894	1.25636	-0.621075	0.68291	1.40601	-0.602901	0.999583	0.572915	-0.455951	0.975055	0.444384	-0.442936	1.03187	0.338242	-0.418886	1.0583	0.470752	-0.464022	0.967642	0.806598	-0.473971	1.02417	0.681325	-0.449542	0.86263	0.760858	-0.499442	0.923237	0.643495	-0.455097	1.35932	0.162716	-0.403722	0.718803	1.17398	-0.566294	0.65459	1.14638	-0.594842	0.953414	1.53692	-0.140732	0.775951	1.28434	0.0406151	0.73002	1.25868	-0.0355152	0.904466	1.15987	-0.0159934	0.879787	1.33861	-0.0287007	0.972052	1.07792	-0.0520623	0.941076	1.04904	-0.0274819	0.976288	1.44559	-0.351191	0.908016	1.04298	-0.167406	0.698321	1.10415	-0.226319	0.173346	0.599411	-0.162035	0.314999	0.643748	-0.171019	0.341395	0.717495	-0.232834	0.7351	0.553622	-0.133708	0.502981	0.556853	-0.147868	0.628463	0.597821	-0.106317	0.524024	0.635796	-0.132057	0.617673	0.528943	-0.132395	0.877409	0.742471	-0.122603	0.843513	0.632354	-0.136663	0.795186	0.613205	-0.116017	0.770697	0.765803	-0.089119	0.741913	0.653849	-0.11547	0.177892	0.544802	-0.220275
423	2.115	0.863164	1.58452	-0.321396	0.871372	1.04345	-0.428468	0.683928	1.09446	-0.324247	1.29269	0.0960405	-0.444079	0.880931	1.52853	-0.512989	1.13772	0.161322	-0.404645	1.10399	0.148021	-0.335744	0.581511	1.39529	-0.631952	0.544003	1.37073	-0.549869	0.648832	1.24035	-0.624768	0.689651	1.39126	-0.608733	0.984812	0.565486	-0.455407	0.958984	0.438802	-0.439032	1.01215	0.33085	-0.415813	1.04205	0.462916	-0.463457	0.960014	0.802777	-0.479978	1.01516	0.677056	-0.451772	0.85282	0.756762	-0.496295	0.912624	0.63835	-0.453249	1.33701	0.146337	-0.403194	0.732019	1.16234	-0.565854	0.669444	1.13188	-0.595755	0.949506	1.53539	-0.139743	0.764573	1.28654	0.0388748	0.720525	1.26137	-0.0380787	0.88577	1.15004	-0.00746274	0.869956	1.33934	-0.028487	0.947808	1.06115	-0.0380422	0.91367	1.03572	-0.0128807	0.976703	1.44368	-0.350052	0.908707	1.04206	-0.168355	0.698459	1.10223	-0.224725	0.192253	0.617714	-0.162938	0.334616	0.658218	-0.172906	0.362728	0.731918	-0.23441	0.748596	0.550118	-0.135059	0.517804	0.562056	-0.150462	0.644387	0.596944	-0.107587	0.541677	0.639565	-0.132819	0.63125	0.529204	-0.135904	0.885777	0.741821	-0.124306	0.855031	0.630629	-0.138663	0.807572	0.609988	-0.11684	0.77899	0.761687	-0.0894025	0.753114	0.649274	-0.116069	0.195379	0.564023	-0.221619
424	2.12	0.86182	1.58069	-0.323293	0.870433	1.04169	-0.428363	0.682535	1.09263	-0.322944	1.26657	0.0793724	-0.442654	0.882089	1.52284	-0.515932	1.11346	0.15084	-0.404283	1.07889	0.138622	-0.335468	0.589034	1.37595	-0.640748	0.549935	1.35255	-0.558994	0.662004	1.22401	-0.628364	0.697257	1.37576	-0.6147	0.970509	0.558959	-0.454735	0.943653	0.433946	-0.437375	0.991966	0.324517	-0.414121	1.02686	0.455196	-0.463378	0.952208	0.797778	-0.486106	1.00628	0.671874	-0.454825	0.843283	0.75292	-0.492521	0.902461	0.633736	-0.451395	1.31213	0.128472	-0.401638	0.746065	1.15088	-0.565118	0.685627	1.11739	-0.59636	0.945287	1.53351	-0.138692	0.753188	1.28868	0.0372497	0.711135	1.26359	-0.0405216	0.86566	1.14138	0.000838261	0.860047	1.33984	-0.0285906	0.921735	1.0463	-0.0241315	0.885326	1.02466	0.00145085	0.977069	1.44155	-0.348878	0.909432	1.04089	-0.169286	0.698638	1.09968	-0.223015	0.212658	0.633793	-0.163603	0.355443	0.671059	-0.174669	0.384872	0.744757	-0.235666	0.762842	0.54674	-0.136415	0.533734	0.566666	-0.152973	0.661161	0.595743	-0.108971	0.560226	0.642524	-0.134257	0.645782	0.529162	-0.139304	0.894527	0.741345	-0.125841	0.867162	0.629093	-0.140675	0.82065	0.606822	-0.118297	0.787734	0.757465	-0.0896772	0.765048	0.644585	-0.116866	0.214631	0.581474	-0.222279
425	2.125	0.859939	1.57633	-0.325582	0.869431	1.03928	-0.428335	0.681618	1.08979	-0.321903	1.23796	0.0608824	-0.440241	0.883016	1.51691	-0.518919	1.08733	0.140021	-0.403801	1.0518	0.129636	-0.335248	0.597939	1.3556	-0.64936	0.556757	1.33346	-0.567684	0.676493	1.20784	-0.631352	0.705338	1.35957	-0.620408	0.956793	0.553572	-0.454414	0.928352	0.429679	-0.437956	0.973103	0.318533	-0.413796	1.01254	0.447333	-0.463484	0.944458	0.79197	-0.49184	0.997398	0.66592	-0.458641	0.834313	0.749516	-0.488659	0.892397	0.629414	-0.450097	1.28495	0.10885	-0.399472	0.76171	1.14004	-0.56428	0.703415	1.10323	-0.596507	0.940872	1.53122	-0.137633	0.741709	1.2909	0.0357953	0.701686	1.26534	-0.042893	0.844516	1.13419	0.00895675	0.850093	1.3399	-0.0291105	0.894105	1.03379	-0.0104804	0.855901	1.01608	0.0154344	0.977414	1.43918	-0.347629	0.910152	1.0395	-0.170193	0.698863	1.09654	-0.221234	0.234247	0.647607	-0.164101	0.377265	0.682319	-0.176254	0.407653	0.755957	-0.236894	0.778024	0.543411	-0.137743	0.550661	0.570673	-0.155504	0.678965	0.594632	-0.110017	0.579739	0.644908	-0.136001	0.661201	0.528917	-0.142011	0.903598	0.741001	-0.127348	0.879968	0.627911	-0.142698	0.834488	0.60385	-0.12002	0.796901	0.753181	-0.0899596	0.777781	0.639795	-0.117518	0.234153	0.595982	-0.223311
426	2.13	0.857719	1.57146	-0.328021	0.868273	1.03658	-0.428481	0.680986	1.08628	-0.321057	1.20573	0.0446948	-0.437249	0.883849	1.51081	-0.521698	1.05956	0.129159	-0.403327	1.02307	0.121266	-0.335122	0.608845	1.33413	-0.657681	0.564333	1.31353	-0.575924	0.692542	1.19222	-0.633377	0.713677	1.34269	-0.624995	0.943748	0.549034	-0.454771	0.913235	0.424981	-0.439863	0.9546	0.312052	-0.415851	0.998657	0.439234	-0.463688	0.936992	0.785639	-0.497172	0.988187	0.659079	-0.462623	0.826081	0.746552	-0.484917	0.882057	0.625117	-0.449408	1.2559	0.088244	-0.395935	0.778931	1.13006	-0.563255	0.723053	1.08985	-0.59614	0.936454	1.52859	-0.136646	0.73021	1.29318	0.0343281	0.692135	1.26696	-0.0449887	0.822703	1.12866	0.0170879	0.840349	1.3394	-0.030004	0.865288	1.02392	0.00283988	0.825597	1.01012	0.029066	0.977764	1.43653	-0.346256	0.910789	1.03777	-0.171095	0.699204	1.093	-0.219379	0.256776	0.659168	-0.164354	0.399821	0.692	-0.177648	0.430868	0.765656	-0.238055	0.794196	0.539864	-0.139096	0.568596	0.574051	-0.158023	0.697512	0.593311	-0.111346	0.600213	0.646578	-0.138162	0.677612	0.528507	-0.143709	0.91302	0.740824	-0.129537	0.893387	0.627034	-0.144563	0.849158	0.601146	-0.121544	0.806435	0.748916	-0.0898297	0.791349	0.634938	-0.117497	0.255054	0.60808	-0.224076
